<svg width="209" height="71" viewBox="0 0 209 71" fill="none" xmlns="http://www.w3.org/2000/svg">
<path d="M2.54743 8.08343e-07C2.06295 -0.000393503 1.58927 0.14348 1.18645 0.413379C0.783623 0.683278 0.469802 1.06704 0.284777 1.51602C0.099752 1.96499 0.0518569 2.45894 0.147166 2.93524C0.242475 3.41154 0.476695 3.84874 0.820126 4.19139C1.16356 4.53404 1.60073 4.76671 2.07621 4.8599C2.55169 4.95309 3.04405 4.90261 3.49088 4.71484C3.93771 4.52708 4.31886 4.21049 4.58602 3.80523C4.85317 3.39997 4.99429 2.92429 4.99148 2.4385C4.98721 1.79099 4.72795 1.17139 4.27018 0.714657C3.81241 0.257926 3.19321 0.00105869 2.54743 8.08343e-07Z" fill="#B73FA0"/>
<path d="M2.54747 10.9631C2.06342 10.9627 1.59014 11.1063 1.18753 11.3758C0.784918 11.6452 0.471086 12.0284 0.285756 12.4767C0.100427 12.9251 0.0519343 13.4186 0.146417 13.8946C0.240899 14.3706 0.474109 14.8078 0.816524 15.1509C1.15894 15.494 1.59516 15.7274 2.06998 15.8218C2.54479 15.9161 3.03685 15.8671 3.48386 15.6809C3.93087 15.4947 4.31273 15.1797 4.58111 14.7757C4.84949 14.3718 4.99232 13.8971 4.99152 13.4118C4.98991 12.7625 4.73184 12.1403 4.27378 11.6814C3.81572 11.2224 3.19499 10.9642 2.54747 10.9631Z" fill="#A63BAC"/>
<path d="M2.54735 21.9302C2.06356 21.9298 1.59052 22.0733 1.18804 22.3425C0.785562 22.6116 0.471725 22.9944 0.286217 23.4425C0.100709 23.8905 0.0518612 24.3836 0.145851 24.8595C0.23984 25.3353 0.472446 25.7726 0.814252 26.1159C1.15606 26.4592 1.59172 26.6931 2.06613 26.7882C2.54055 26.8832 3.03241 26.835 3.47953 26.6498C3.92664 26.4645 4.30893 26.1504 4.57804 25.7473C4.84715 25.3442 4.991 24.8701 4.9914 24.385C4.9914 23.7347 4.73404 23.1109 4.2758 22.6507C3.81757 22.1904 3.19593 21.9313 2.54735 21.9302Z" fill="#9636B9"/>
<path d="M2.54746 32.8974C2.06393 32.897 1.59113 33.0403 1.18879 33.3092C0.786441 33.5782 0.472603 33.9606 0.286919 34.4083C0.101235 34.8559 0.0520338 35.3487 0.145532 35.8244C0.239031 36.3001 0.471034 36.7374 0.812233 37.0809C1.15343 37.4245 1.58852 37.6589 2.06253 37.7546C2.53654 37.8503 3.02822 37.803 3.47544 37.6187C3.92265 37.4344 4.30536 37.1213 4.5752 36.7189C4.84504 36.3166 4.98991 35.8431 4.99151 35.3583C4.99231 35.0358 4.92971 34.7162 4.8073 34.418C4.68488 34.1197 4.50504 33.8485 4.27806 33.62C4.05109 33.3915 3.78142 33.21 3.48447 33.086C3.18752 32.9621 2.86912 32.898 2.54746 32.8974Z" fill="#8532C5"/>
<path d="M33.6412 5.99871C35.3594 6.6807 36.9216 7.70522 38.2334 9.01026L35.6272 12.29C34.6644 11.25 33.5078 10.4092 32.2226 9.81497C30.9786 9.21937 29.6189 8.90643 28.2404 8.89849C26.568 8.88134 24.9205 9.30606 23.4637 10.1299C22.3974 10.7459 21.4626 11.5666 20.7127 12.545C19.9629 13.5235 19.4127 14.6406 19.0937 15.8324C18.7747 17.0242 18.6931 18.2673 18.8535 19.4908C19.0139 20.7142 19.4133 21.894 20.0287 22.9626C20.8513 24.3802 22.0346 25.5534 23.4576 26.3622C24.9108 27.1972 26.5596 27.6286 28.2343 27.612C29.5829 27.6031 30.9156 27.3197 32.1517 26.7788C33.444 26.2315 34.6222 25.4457 35.6252 24.4622L38.2598 27.4271C36.8834 28.7794 35.2658 29.8603 33.4912 30.6134C31.7607 31.3742 29.8929 31.7712 28.0033 31.7798C25.56 31.8073 23.152 31.1944 21.0176 30.0017C18.952 28.8557 17.2342 27.1704 16.0465 25.1247C14.8344 23.046 14.2082 20.6762 14.2347 18.2684C14.2061 15.8851 14.8375 13.5405 16.0586 11.4955C17.274 9.4676 19.0096 7.80375 21.0845 6.67742C22.9982 5.64327 25.1163 5.04615 27.2871 4.92882C29.4579 4.81148 31.6277 5.17683 33.6412 5.99871Z" fill="white"/>
<path d="M42.7202 31.5969V3.43219H47.0814V31.5969H42.7202Z" fill="white"/>
<path d="M71.9739 31.5969H67.6309V27.6506C66.3258 30.3316 63.9297 31.6965 60.4426 31.7453C58.1459 31.7453 56.3408 31.0503 55.0276 29.6603C53.7144 28.2704 53.0551 26.3738 53.0497 23.9705V11.4H57.4129V22.7594C57.4129 24.278 57.829 25.4729 58.6613 26.344C59.4935 27.2151 60.6419 27.6506 62.1065 27.6506C63.7939 27.6262 65.1369 27.024 66.1353 25.8441C67.1337 24.6641 67.6329 23.1665 67.6329 21.3511V11.3939H71.9759L71.9739 31.5969Z" fill="white"/>
<path d="M96.8299 31.5969H92.487V28.1423C91.7935 29.2967 90.7917 30.2336 89.595 30.8471C88.2942 31.4876 86.859 31.8054 85.4102 31.7737C83.4876 31.7737 81.8029 31.3381 80.3559 30.4671C78.9052 29.5942 77.7321 28.3256 76.9735 26.8093C76.1629 25.2405 75.7576 23.4428 75.7576 21.4161C75.7576 19.4152 76.1629 17.6426 76.9735 16.0982C77.7375 14.5994 78.9105 13.3492 80.3559 12.4933C81.8685 11.6174 83.5908 11.172 85.3372 11.2049C86.9504 11.2049 88.3548 11.5233 89.5505 12.16C90.7497 12.8002 91.7623 13.7421 92.489 14.8932V3.43219H96.8299V31.5969ZM90.7684 26.3135C91.9141 25.0847 92.487 23.5065 92.487 21.5787C92.487 19.6279 91.9141 18.0341 90.7684 16.7972C89.6227 15.5604 88.1366 14.9426 86.31 14.944C84.4982 14.944 83.0168 15.5644 81.8657 16.8053C80.7146 18.0463 80.1262 19.6367 80.1005 21.5767C80.1248 23.5045 80.7132 25.0827 81.8657 26.3114C83.0181 27.5402 84.4996 28.1545 86.31 28.1545C88.1366 28.1518 89.6227 27.5361 90.7684 26.3074V26.3135Z" fill="white"/>
<path d="M116.771 12.5481C118.321 13.3747 119.606 14.6246 120.476 16.1531C121.357 17.6907 121.797 19.4721 121.797 21.4974C121.832 23.3617 121.376 25.2021 120.476 26.8337C119.613 28.3729 118.327 29.6307 116.771 30.4569C115.183 31.3158 113.365 31.7452 111.32 31.7452C109.25 31.7452 107.421 31.3158 105.832 30.4569C104.276 29.6307 102.99 28.3729 102.127 26.8337C101.227 25.2022 100.771 23.3617 100.806 21.4974C100.806 19.4654 101.246 17.6832 102.127 16.151C102.998 14.6226 104.282 13.3727 105.832 12.5461C107.421 11.6818 109.25 11.2496 111.32 11.2496C113.217 11.2145 115.093 11.6612 116.771 12.5481ZM106.876 16.8379C105.723 18.0571 105.148 19.6232 105.149 21.5361C105.149 23.4882 105.725 25.0726 106.876 26.2891C108.027 27.5056 109.508 28.1153 111.32 28.118C113.132 28.118 114.607 27.5083 115.746 26.2891C116.885 25.0698 117.454 23.4869 117.454 21.5401C117.454 19.6123 116.878 18.0436 115.726 16.8338C114.573 15.624 113.104 15.0185 111.318 15.0171C109.507 15.0144 108.027 15.6213 106.876 16.8379Z" fill="white"/>
<path d="M0.666 68.488C1.782 69.586 3.312 70.216 4.896 70.216C7.542 70.216 9.126 68.632 9.126 66.724C9.126 65.014 8.154 64.132 6.75 63.538L5.166 62.872C4.194 62.476 3.294 62.134 3.294 61.216C3.294 60.352 4.014 59.83 5.13 59.83C6.138 59.83 6.948 60.208 7.686 60.838L8.766 59.506C7.848 58.588 6.516 58.012 5.13 58.012C2.844 58.012 1.188 59.452 1.188 61.324C1.188 63.052 2.394 63.97 3.564 64.456L5.166 65.158C6.246 65.608 7.002 65.914 7.002 66.886C7.002 67.804 6.264 68.398 4.95 68.398C3.852 68.398 2.718 67.858 1.872 67.066L0.666 68.488ZM12.1139 59.614C12.8519 59.614 13.3919 59.128 13.3919 58.444C13.3919 57.742 12.8519 57.256 12.1139 57.256C11.3759 57.256 10.8359 57.742 10.8359 58.444C10.8359 59.128 11.3759 59.614 12.1139 59.614ZM11.0699 70H13.1399V61.162H11.0699V70ZM16.0868 67.012C16.0868 68.92 16.8428 70.216 18.8948 70.216C19.5968 70.216 20.2088 70.054 20.6948 69.892L20.3348 68.362C20.0828 68.47 19.7228 68.56 19.4168 68.56C18.5708 68.56 18.1748 68.056 18.1748 67.012V62.8H20.4248V61.162H18.1748V58.75H16.4468L16.1948 61.162L14.8268 61.252V62.8H16.0868V67.012ZM21.5329 65.59C21.5329 68.506 23.4409 70.216 25.8889 70.216C27.0049 70.216 28.0669 69.82 28.9129 69.262L28.2109 67.966C27.5629 68.38 26.9149 68.614 26.1589 68.614C24.7369 68.614 23.7289 67.714 23.5489 66.112H29.1649C29.2189 65.896 29.2549 65.536 29.2549 65.14C29.2549 62.674 27.9949 60.946 25.6009 60.946C23.5309 60.946 21.5329 62.71 21.5329 65.59ZM23.5309 64.798C23.7109 63.322 24.6109 62.548 25.6549 62.548C26.8609 62.548 27.4549 63.394 27.4549 64.798H23.5309ZM34.2754 68.488C35.3914 69.586 36.9214 70.216 38.5054 70.216C41.1514 70.216 42.7354 68.632 42.7354 66.724C42.7354 65.014 41.7634 64.132 40.3594 63.538L38.7754 62.872C37.8034 62.476 36.9034 62.134 36.9034 61.216C36.9034 60.352 37.6234 59.83 38.7394 59.83C39.7474 59.83 40.5574 60.208 41.2954 60.838L42.3754 59.506C41.4574 58.588 40.1254 58.012 38.7394 58.012C36.4534 58.012 34.7974 59.452 34.7974 61.324C34.7974 63.052 36.0034 63.97 37.1734 64.456L38.7754 65.158C39.8554 65.608 40.6114 65.914 40.6114 66.886C40.6114 67.804 39.8734 68.398 38.5594 68.398C37.4614 68.398 36.3274 67.858 35.4814 67.066L34.2754 68.488ZM44.1032 65.59C44.1032 68.506 46.0112 70.216 48.4592 70.216C49.5752 70.216 50.6372 69.82 51.4832 69.262L50.7812 67.966C50.1332 68.38 49.4852 68.614 48.7292 68.614C47.3072 68.614 46.2992 67.714 46.1192 66.112H51.7352C51.7892 65.896 51.8252 65.536 51.8252 65.14C51.8252 62.674 50.5652 60.946 48.1712 60.946C46.1012 60.946 44.1032 62.71 44.1032 65.59ZM46.1012 64.798C46.2812 63.322 47.1812 62.548 48.2252 62.548C49.4312 62.548 50.0252 63.394 50.0252 64.798H46.1012ZM53.2133 67.624C53.2133 69.172 54.2933 70.216 55.8413 70.216C56.8853 70.216 57.7853 69.694 58.5773 69.028H58.6313L58.7933 70H60.4853V64.762C60.4853 62.296 59.4053 60.946 57.1913 60.946C55.7873 60.946 54.5453 61.486 53.5733 62.098L54.3293 63.484C55.1033 63.016 55.9313 62.62 56.8133 62.62C58.0013 62.62 58.3973 63.412 58.4153 64.348C54.7973 64.744 53.2133 65.734 53.2133 67.624ZM55.2293 67.462C55.2293 66.58 56.0213 65.95 58.4153 65.644V67.624C57.7673 68.236 57.2093 68.596 56.4893 68.596C55.7513 68.596 55.2293 68.254 55.2293 67.462ZM63.0132 70H65.0832V64.6C65.6232 63.268 66.4692 62.782 67.1712 62.782C67.5492 62.782 67.7832 62.836 68.0892 62.926L68.4492 61.126C68.1792 61 67.8912 60.946 67.4412 60.946C66.5052 60.946 65.5692 61.576 64.9392 62.728H64.8672L64.7232 61.162H63.0132V70ZM68.9763 65.59C68.9763 68.524 70.8303 70.216 73.2423 70.216C74.2503 70.216 75.3123 69.82 76.1403 69.082L75.2763 67.768C74.7903 68.164 74.1783 68.524 73.4583 68.524C72.0723 68.524 71.1003 67.354 71.1003 65.59C71.1003 63.808 72.0903 62.638 73.5123 62.638C74.0703 62.638 74.5383 62.872 75.0063 63.286L75.9963 61.972C75.4023 61.396 74.5383 60.946 73.4043 60.946C71.0463 60.946 68.9763 62.638 68.9763 65.59ZM77.8667 70H79.9367V63.826C80.6747 63.106 81.1787 62.728 81.9527 62.728C82.9247 62.728 83.3387 63.268 83.3387 64.726V70H85.4087V64.456C85.4087 62.224 84.5807 60.946 82.6907 60.946C81.4847 60.946 80.6027 61.576 79.8647 62.278L79.9367 60.568V57.292H77.8667V70ZM91.0553 65.59C91.0553 68.506 92.4773 70.216 94.6913 70.216C95.6453 70.216 96.5453 69.694 97.1933 69.046H97.2653L97.4093 70H99.1193V57.292H97.0493V60.496L97.1213 61.918C96.4373 61.324 95.8073 60.946 94.7993 60.946C92.8733 60.946 91.0553 62.71 91.0553 65.59ZM93.1973 65.572C93.1973 63.718 94.1153 62.656 95.2493 62.656C95.8433 62.656 96.4373 62.854 97.0493 63.394V67.516C96.4553 68.2 95.8793 68.506 95.1953 68.506C93.9173 68.506 93.1973 67.48 93.1973 65.572ZM101.179 65.59C101.179 68.524 103.177 70.216 105.373 70.216C107.587 70.216 109.585 68.524 109.585 65.59C109.585 62.638 107.587 60.946 105.373 60.946C103.177 60.946 101.179 62.638 101.179 65.59ZM103.303 65.59C103.303 63.808 104.077 62.638 105.373 62.638C106.669 62.638 107.461 63.808 107.461 65.59C107.461 67.354 106.669 68.524 105.373 68.524C104.077 68.524 103.303 67.354 103.303 65.59ZM111.058 65.59C111.058 68.524 112.912 70.216 115.324 70.216C116.332 70.216 117.394 69.82 118.222 69.082L117.358 67.768C116.872 68.164 116.26 68.524 115.54 68.524C114.154 68.524 113.182 67.354 113.182 65.59C113.182 63.808 114.172 62.638 115.594 62.638C116.152 62.638 116.62 62.872 117.088 63.286L118.078 61.972C117.484 61.396 116.62 60.946 115.486 60.946C113.128 60.946 111.058 62.638 111.058 65.59ZM119.859 66.706C119.859 68.938 120.687 70.216 122.577 70.216C123.783 70.216 124.647 69.622 125.421 68.704H125.475L125.637 70H127.329V61.162H125.259V67.21C124.593 68.074 124.071 68.434 123.297 68.434C122.343 68.434 121.929 67.894 121.929 66.436V61.162H119.859V66.706ZM129.951 70H132.021V63.826C132.705 63.088 133.335 62.728 133.875 62.728C134.811 62.728 135.243 63.268 135.243 64.726V70H137.313V63.826C137.997 63.088 138.609 62.728 139.167 62.728C140.085 62.728 140.517 63.268 140.517 64.726V70H142.605V64.456C142.605 62.224 141.741 60.946 139.869 60.946C138.753 60.946 137.871 61.63 137.025 62.53C136.611 61.54 135.873 60.946 134.577 60.946C133.479 60.946 132.615 61.576 131.877 62.368H131.805L131.661 61.162H129.951V70ZM144.545 65.59C144.545 68.506 146.453 70.216 148.901 70.216C150.017 70.216 151.079 69.82 151.925 69.262L151.223 67.966C150.575 68.38 149.927 68.614 149.171 68.614C147.749 68.614 146.741 67.714 146.561 66.112H152.177C152.231 65.896 152.267 65.536 152.267 65.14C152.267 62.674 151.007 60.946 148.613 60.946C146.543 60.946 144.545 62.71 144.545 65.59ZM146.543 64.798C146.723 63.322 147.623 62.548 148.667 62.548C149.873 62.548 150.467 63.394 150.467 64.798H146.543ZM154.244 70H156.314V63.826C157.052 63.106 157.556 62.728 158.33 62.728C159.302 62.728 159.716 63.268 159.716 64.726V70H161.786V64.456C161.786 62.224 160.958 60.946 159.068 60.946C157.862 60.946 156.962 61.576 156.17 62.35H156.098L155.954 61.162H154.244V70ZM164.622 67.012C164.622 68.92 165.378 70.216 167.43 70.216C168.132 70.216 168.744 70.054 169.23 69.892L168.87 68.362C168.618 68.47 168.258 68.56 167.952 68.56C167.106 68.56 166.71 68.056 166.71 67.012V62.8H168.96V61.162H166.71V58.75H164.982L164.73 61.162L163.362 61.252V62.8H164.622V67.012ZM170.178 67.624C170.178 69.172 171.258 70.216 172.806 70.216C173.85 70.216 174.75 69.694 175.542 69.028H175.596L175.758 70H177.45V64.762C177.45 62.296 176.37 60.946 174.156 60.946C172.752 60.946 171.51 61.486 170.538 62.098L171.294 63.484C172.068 63.016 172.896 62.62 173.778 62.62C174.966 62.62 175.362 63.412 175.38 64.348C171.762 64.744 170.178 65.734 170.178 67.624ZM172.194 67.462C172.194 66.58 172.986 65.95 175.38 65.644V67.624C174.732 68.236 174.174 68.596 173.454 68.596C172.716 68.596 172.194 68.254 172.194 67.462ZM180.284 67.012C180.284 68.92 181.04 70.216 183.092 70.216C183.794 70.216 184.406 70.054 184.892 69.892L184.532 68.362C184.28 68.47 183.92 68.56 183.614 68.56C182.768 68.56 182.372 68.056 182.372 67.012V62.8H184.622V61.162H182.372V58.75H180.644L180.392 61.162L179.024 61.252V62.8H180.284V67.012ZM187.526 59.614C188.264 59.614 188.804 59.128 188.804 58.444C188.804 57.742 188.264 57.256 187.526 57.256C186.788 57.256 186.248 57.742 186.248 58.444C186.248 59.128 186.788 59.614 187.526 59.614ZM186.482 70H188.552V61.162H186.482V70ZM190.617 65.59C190.617 68.524 192.615 70.216 194.811 70.216C197.025 70.216 199.023 68.524 199.023 65.59C199.023 62.638 197.025 60.946 194.811 60.946C192.615 60.946 190.617 62.638 190.617 65.59ZM192.741 65.59C192.741 63.808 193.515 62.638 194.811 62.638C196.107 62.638 196.899 63.808 196.899 65.59C196.899 67.354 196.107 68.524 194.811 68.524C193.515 68.524 192.741 67.354 192.741 65.59ZM201.072 70H203.142V63.826C203.88 63.106 204.384 62.728 205.158 62.728C206.13 62.728 206.544 63.268 206.544 64.726V70H208.614V64.456C208.614 62.224 207.786 60.946 205.896 60.946C204.69 60.946 203.79 61.576 202.998 62.35H202.926L202.782 61.162H201.072V70Z" fill="#FFC000"/>
</svg>
